<?xml version="1.0" encoding="UTF-8"?>
    <svg version="1.1" viewBox="0 0 212 182" xmlns="http://www.w3.org/2000/svg">
    <title>Instituto Federal do Tocantins - Marca Vertical 2015</title>
    <g fill="#2f9e41" transform="translate(24)">
    <rect x="72" y="4" width="20" height="20" rx="2" ry="2"/>
    <rect x="96" y="4" width="20" height="20" rx="2" ry="2"/>
    <rect x="48" y="28" width="20" height="20" rx="2" ry="2"/>
    <rect x="72" y="28" width="20" height="20" rx="2" ry="2"/>
    <rect x="48" y="52" width="20" height="20" rx="2" ry="2"/>
    <rect x="72" y="52" width="20" height="20" rx="2" ry="2"/>
    <rect x="96" y="52" width="20" height="20" rx="2" ry="2"/>
    <rect x="48" y="76" width="20" height="20" rx="2" ry="2"/>
    <rect x="72" y="76" width="20" height="20" rx="2" ry="2"/>
    </g>
    <circle cx="82" cy="14" r="11" fill="#cd191e"/>
    <g transform="translate(24)">
    <path d="m10.031 130v-19.988h4.2383v19.988z"/>
    <path d="m37.061 130h-5.3867l-8.6953-15.121h-0.12305q0.25976 4.0059 0.25976 5.7148v9.4062h-3.7871v-19.988h5.3457l8.6816 14.971h0.0957q-0.20508-3.8965-0.20508-5.5098v-9.4609h3.8145z"/>
    <path d="m53.877 124.45q0 2.707-1.9551 4.2656-1.9414 1.5586-5.4141 1.5586-3.1992 0-5.6602-1.2031v-3.9375q2.0234 0.90235 3.418 1.2715 1.4082 0.36914 2.5703 0.36914 1.3945 0 2.1328-0.53321 0.75195-0.5332 0.75195-1.5859 0-0.58789-0.32812-1.0391-0.32812-0.46484-0.9707-0.88867-0.62891-0.42383-2.584-1.3535-1.832-0.86133-2.748-1.6543-0.91602-0.79297-1.4629-1.8457-0.54688-1.0527-0.54688-2.4609 0-2.6523 1.791-4.1699 1.8047-1.5176 4.9766-1.5176 1.5586 0 2.9668 0.36914 1.4219 0.36914 2.9668 1.0391l-1.3672 3.2949q-1.5996-0.65625-2.6523-0.91601-1.0391-0.25977-2.0508-0.25977-1.2031 0-1.8457 0.56055t-0.64258 1.4629q0 0.56055 0.25977 0.98438 0.25976 0.41015 0.82031 0.80664 0.57422 0.38281 2.6934 1.3945 2.8027 1.3398 3.8418 2.6934 1.0391 1.3398 1.0391 3.2949z"/>
    <path d="m65.211 130h-4.2383v-16.461h-5.4277v-3.5273h15.094v3.5273h-5.4277z"/>
    <path d="m73.742 130v-19.988h4.2383v19.988z"/>
    <path d="m90.75 130h-4.2383v-16.461h-5.4277v-3.5273h15.094v3.5273h-5.4277z"/>
    <path d="m115.55 110.01v12.934q0 2.2148-0.99805 3.8828-0.98437 1.668-2.8574 2.5566-1.873 0.88867-4.4297 0.88867-3.8555 0-5.9883-1.9688-2.1328-1.9824-2.1328-5.4141v-12.879h4.2246v12.236q0 2.3105 0.92969 3.3906t3.0762 1.0801q2.0781 0 3.0078-1.0801 0.94336-1.0938 0.94336-3.418v-12.209z"/>
    <path d="m128.16 130h-4.2383v-16.461h-5.4277v-3.5273h15.094v3.5273h-5.4277z"/>
    <path d="m154.83 119.98q0 4.9629-2.4609 7.6289-2.4609 2.666-7.0547 2.666t-7.0547-2.666q-2.4609-2.666-2.4609-7.6562 0-4.9902 2.4609-7.6152 2.4746-2.6387 7.082-2.6387 4.6074 0 7.041 2.6523 2.4473 2.6523 2.4473 7.6289zm-14.588 0q0 3.3496 1.2715 5.0449 1.2715 1.6953 3.8008 1.6953 5.0723 0 5.0723-6.7402 0-6.7539-5.0449-6.7539-2.5293 0-3.8145 1.709-1.2852 1.6953-1.2852 5.0449z"/>
    </g>
    <g transform="translate(24)">
    <path d="m28.146 154h-4.1699v-19.988h11.457v3.4726h-7.2871v5.1543h6.7812v3.459h-6.7812z"/>
    <path d="m50.855 154h-11.512v-19.988h11.512v3.4726h-7.2734v4.3887h6.7676v3.4726h-6.7676v5.1543h7.2734z"/>
    <path d="m71.623 143.81q0 4.9356-2.8164 7.5606-2.8027 2.625-8.1074 2.625h-5.6602v-19.988h6.2754q4.8945 0 7.6016 2.584 2.707 2.584 2.707 7.2188zm-4.4023 0.10938q0-6.4395-5.6875-6.4395h-2.2559v13.016h1.8184q6.125 0 6.125-6.5762z"/>
    <path d="m87.277 154h-11.512v-19.988h11.512v3.4726h-7.2734v4.3887h6.7676v3.4726h-6.7676v5.1543h7.2734z"/>
    <path d="m95.699 142.88h1.3672q2.0098 0 2.9668-0.66993 0.95703-0.66992 0.95703-2.1055 0-1.4219-0.98437-2.0234-0.9707-0.60157-3.0215-0.60157h-1.2852zm0 3.4453v7.6699h-4.2383v-19.988h5.8242q4.0742 0 6.0293 1.4902 1.9551 1.4766 1.9551 4.498 0 1.7637-0.9707 3.1445-0.9707 1.3672-2.748 2.1465 4.5117 6.7402 5.8789 8.709h-4.7031l-4.7715-7.6699z"/>
    <path d="m122.18 154-1.4492-4.7578h-7.2871l-1.4492 4.7578h-4.5664l7.0547-20.07h5.1816l7.082 20.07zm-2.4609-8.3125q-2.0098-6.4668-2.2695-7.3144-0.24609-0.84766-0.35547-1.3398-0.45117 1.75-2.584 8.6543z"/>
    <path d="m129.25 154v-19.988h4.2383v16.488h8.1074v3.5z"/>
    </g>
    <text x="106" y="178" fill="#000000" font-family="'Open Sans'" font-size="21px" text-anchor="middle" style="line-height:1">
        <tspan x="106" y="178">Tocantins</tspan>
        </text>
    </svg>